<svg width="88" height="36" viewBox="0 0 88 36" fill="none" xmlns="http://www.w3.org/2000/svg">
<path d="M0.0482338 24.0526C0.594883 23.6185 0.844091 23.4175 0.795857 23.4497C2.37149 22.1473 3.60949 21.0782 4.50986 20.2421C5.4263 19.4061 6.19804 18.5298 6.82508 17.6134C7.45212 16.6969 7.76564 15.8046 7.76564 14.9364C7.76564 14.2772 7.6129 13.7627 7.30742 13.3929C7.00194 13.0231 6.54372 12.8382 5.93276 12.8382C5.32179 12.8382 4.83946 13.0714 4.48574 13.5376C4.14811 13.9878 3.97929 14.6309 3.97929 15.467H0C0.0321559 14.1003 0.321559 12.9588 0.868208 12.0424C1.43094 11.1259 2.16248 10.4507 3.06284 10.0165C3.97929 9.58244 4.9922 9.36539 6.10157 9.36539C8.01485 9.36539 9.45382 9.85577 10.4185 10.8365C11.3992 11.8173 11.8896 13.0955 11.8896 14.6711C11.8896 16.3914 11.3028 17.9912 10.1291 19.4704C8.9554 20.9335 7.46016 22.3644 5.64335 23.7632H12.1549V27.1154H0.0482338V24.0526Z" fill="white"/>
<path d="M18.5046 16.1422C18.987 15.4027 19.5899 14.8238 20.3134 14.4058C21.0369 13.9717 21.8408 13.7547 22.7251 13.7547V18.1198H21.5916C20.5626 18.1198 19.7909 18.3449 19.2764 18.7951C18.7619 19.2292 18.5046 20.0009 18.5046 21.1103V27.3566H14.3806V13.8994H18.5046V16.1422Z" fill="white"/>
<path d="M26.7703 12.5006C26.0468 12.5006 25.4519 12.2916 24.9857 11.8735C24.5355 11.4394 24.3104 10.9089 24.3104 10.2818C24.3104 9.63872 24.5355 9.10815 24.9857 8.69012C25.4519 8.25601 26.0468 8.03896 26.7703 8.03896C27.4777 8.03896 28.0565 8.25601 28.5067 8.69012C28.973 9.10815 29.2061 9.63872 29.2061 10.2818C29.2061 10.9089 28.973 11.4394 28.5067 11.8735C28.0565 12.2916 27.4777 12.5006 26.7703 12.5006ZM28.8202 13.8994V27.3566H24.6963V13.8994H28.8202Z" fill="white"/>
<path d="M37.2834 27.5495C36.1097 27.5495 35.0646 27.3486 34.1482 26.9466C33.2318 26.5447 32.5082 25.998 31.9777 25.3067C31.4471 24.5992 31.1497 23.8114 31.0853 22.9432H35.1611C35.2093 23.4095 35.4264 23.7873 35.8123 24.0767C36.1981 24.3661 36.6724 24.5108 37.2352 24.5108C37.7497 24.5108 38.1436 24.4143 38.4169 24.2214C38.7063 24.0124 38.851 23.7471 38.851 23.4255C38.851 23.0397 38.65 22.7583 38.2481 22.5814C37.8461 22.3885 37.195 22.1795 36.2946 21.9544C35.3299 21.7293 34.526 21.4962 33.8829 21.255C33.2398 20.9978 32.6851 20.6039 32.2188 20.0733C31.7526 19.5266 31.5195 18.7951 31.5195 17.8787C31.5195 17.1069 31.7285 16.4075 32.1465 15.7805C32.5806 15.1374 33.2076 14.6309 34.0276 14.2611C34.8637 13.8913 35.8525 13.7064 36.994 13.7064C38.6822 13.7064 40.0086 14.1245 40.9733 14.9605C41.954 15.7966 42.5168 16.9059 42.6615 18.2886H38.851C38.7867 17.8224 38.5777 17.4526 38.224 17.1793C37.8863 16.9059 37.4361 16.7693 36.8734 16.7693C36.3911 16.7693 36.0213 16.8657 35.764 17.0587C35.5068 17.2355 35.3782 17.4847 35.3782 17.8063C35.3782 18.1922 35.5791 18.4816 35.9811 18.6745C36.3991 18.8674 37.0422 19.0604 37.9104 19.2533C38.9073 19.5106 39.7192 19.7678 40.3462 20.0251C40.9733 20.2662 41.5199 20.6682 41.9862 21.2309C42.4685 21.7776 42.7177 22.5171 42.7338 23.4497C42.7338 24.2375 42.5087 24.9449 42.0585 25.5719C41.6244 26.1829 40.9894 26.6652 40.1533 27.019C39.3333 27.3727 38.3767 27.5495 37.2834 27.5495Z" fill="white"/>
<path d="M62.4281 13.7547C64.1002 13.7547 65.4266 14.2611 66.4074 15.274C67.4042 16.2869 67.9026 17.6938 67.9026 19.4945V27.3566H63.8027V20.0492C63.8027 19.181 63.5696 18.5137 63.1033 18.0475C62.6532 17.5651 62.0261 17.324 61.2222 17.324C60.4183 17.324 59.7833 17.5651 59.317 18.0475C58.8668 18.5137 58.6417 19.181 58.6417 20.0492V27.3566H54.5419V20.0492C54.5419 19.181 54.3087 18.5137 53.8425 18.0475C53.3923 17.5651 52.7652 17.324 51.9613 17.324C51.1574 17.324 50.5224 17.5651 50.0561 18.0475C49.6059 18.5137 49.3808 19.181 49.3808 20.0492V27.3566H45.2568V13.8994H49.3808V15.5875C49.7989 15.0248 50.3455 14.5827 51.0208 14.2611C51.6961 13.9235 52.4598 13.7547 53.3119 13.7547C54.3248 13.7547 55.2252 13.9717 56.013 14.4058C56.8169 14.8399 57.4439 15.4589 57.8941 16.2628C58.3604 15.5232 58.9954 14.9203 59.7993 14.4541C60.6032 13.9878 61.4795 13.7547 62.4281 13.7547Z" fill="white"/>
<g clip-path="url(#clip0_0_30)">
<path d="M73.2257 6.24024C72.876 6.12368 72.8727 5.93543 73.2324 5.81552L86.0191 1.55353C86.3735 1.43562 86.5764 1.63392 86.4773 1.98093L82.8236 14.7669C82.7231 15.1213 82.5188 15.1333 82.3687 14.797L79.961 9.37879L83.9805 4.01948L78.6212 8.03896L73.2257 6.24024Z" fill="#7B61FF"/>
</g>
<defs>
<clipPath id="clip0_0_30">
<rect width="16" height="16" fill="white" transform="translate(71.9221) scale(1.00487)"/>
</clipPath>
</defs>
</svg>
