<svg width="160" height="32" viewBox="0 0 160 32" fill="none" xmlns="http://www.w3.org/2000/svg">
<path d="M16 2.6665C8.63599 2.6665 2.66666 8.63584 2.66666 15.9998C2.66666 22.6545 7.54266 28.1705 13.9173 29.1718V19.8532H10.5307V15.9998H13.9173V13.0625C13.9173 9.72117 15.9067 7.87584 18.9533 7.87584C20.412 7.87584 21.9373 8.13584 21.9373 8.13584V11.4158H20.2573C18.6 11.4158 18.084 12.4438 18.084 13.4985V15.9998H21.7813L21.1907 19.8532H18.084V29.1718C24.4573 28.1718 29.3333 22.6532 29.3333 15.9998C29.3333 8.63584 23.364 2.6665 16 2.6665Z" fill="#5243C2"/>
<g clip-path="url(#clip0_0_50)">
<path d="M93.5493 7.54124C92.5314 7.99149 91.452 8.2872 90.3467 8.41857C91.5117 7.72181 92.3836 6.62525 92.8 5.33324C91.7067 5.9839 90.508 6.4399 89.2587 6.68657C88.4195 5.78867 87.3072 5.19319 86.0946 4.99268C84.8821 4.79218 83.6373 4.99789 82.5537 5.57784C81.4701 6.15779 80.6085 7.07948 80.1028 8.19963C79.5971 9.31977 79.4757 10.5756 79.7573 11.7719C77.5402 11.6608 75.3711 11.0846 73.3911 10.0808C71.411 9.07698 69.6642 7.66797 68.264 5.94524C67.7684 6.7965 67.5079 7.7642 67.5093 8.74924C67.5093 10.6826 68.4933 12.3906 69.9893 13.3906C69.104 13.3627 68.2382 13.1236 67.464 12.6932V12.7626C67.4643 14.0502 67.9098 15.2981 68.7251 16.2946C69.5404 17.2912 70.6753 17.9752 71.9373 18.2306C71.1155 18.4533 70.2538 18.4861 69.4173 18.3266C69.7732 19.4349 70.4667 20.4042 71.4008 21.0987C72.3349 21.7933 73.4628 22.1783 74.6267 22.1999C73.47 23.1083 72.1456 23.7799 70.7292 24.1761C69.3128 24.5724 67.8322 24.6856 66.372 24.5092C68.9209 26.1485 71.8881 27.0187 74.9187 27.0159C85.176 27.0159 90.7853 18.5186 90.7853 11.1492C90.7853 10.9092 90.7787 10.6666 90.768 10.4292C91.8598 9.64013 92.8021 8.66259 93.5507 7.54257L93.5493 7.54124Z" fill="#7B61FF"/>
</g>
<g clip-path="url(#clip1_0_50)">
<path d="M144 2.6665C147.623 2.6665 148.075 2.67984 149.496 2.7465C150.916 2.81317 151.883 3.03584 152.733 3.3665C153.613 3.70517 154.355 4.16384 155.096 4.90384C155.774 5.57037 156.299 6.37662 156.633 7.2665C156.963 8.11584 157.187 9.08384 157.253 10.5038C157.316 11.9252 157.333 12.3772 157.333 15.9998C157.333 19.6225 157.32 20.0745 157.253 21.4958C157.187 22.9158 156.963 23.8825 156.633 24.7332C156.3 25.6235 155.775 26.43 155.096 27.0958C154.429 27.7736 153.623 28.2982 152.733 28.6332C151.884 28.9625 150.916 29.1865 149.496 29.2532C148.075 29.3158 147.623 29.3332 144 29.3332C140.377 29.3332 139.925 29.3198 138.504 29.2532C137.084 29.1865 136.117 28.9625 135.267 28.6332C134.376 28.2991 133.57 27.7744 132.904 27.0958C132.226 26.4294 131.701 25.6231 131.367 24.7332C131.036 23.8838 130.813 22.9158 130.747 21.4958C130.684 20.0745 130.667 19.6225 130.667 15.9998C130.667 12.3772 130.68 11.9252 130.747 10.5038C130.813 9.0825 131.036 8.11717 131.367 7.2665C131.7 6.37608 132.225 5.5696 132.904 4.90384C133.57 4.22548 134.377 3.70081 135.267 3.3665C136.117 3.03584 137.083 2.81317 138.504 2.7465C139.925 2.68384 140.377 2.6665 144 2.6665ZM144 9.33317C142.232 9.33317 140.536 10.0355 139.286 11.2858C138.036 12.536 137.333 14.2317 137.333 15.9998C137.333 17.7679 138.036 19.4636 139.286 20.7139C140.536 21.9641 142.232 22.6665 144 22.6665C145.768 22.6665 147.464 21.9641 148.714 20.7139C149.964 19.4636 150.667 17.7679 150.667 15.9998C150.667 14.2317 149.964 12.536 148.714 11.2858C147.464 10.0355 145.768 9.33317 144 9.33317ZM152.667 8.99984C152.667 8.55781 152.491 8.13389 152.179 7.82133C151.866 7.50877 151.442 7.33317 151 7.33317C150.558 7.33317 150.134 7.50877 149.821 7.82133C149.509 8.13389 149.333 8.55781 149.333 8.99984C149.333 9.44186 149.509 9.86579 149.821 10.1783C150.134 10.4909 150.558 10.6665 151 10.6665C151.442 10.6665 151.866 10.4909 152.179 10.1783C152.491 9.86579 152.667 9.44186 152.667 8.99984ZM144 11.9998C145.061 11.9998 146.078 12.4213 146.828 13.1714C147.579 13.9216 148 14.939 148 15.9998C148 17.0607 147.579 18.0781 146.828 18.8283C146.078 19.5784 145.061 19.9998 144 19.9998C142.939 19.9998 141.922 19.5784 141.172 18.8283C140.421 18.0781 140 17.0607 140 15.9998C140 14.939 140.421 13.9216 141.172 13.1714C141.922 12.4213 142.939 11.9998 144 11.9998Z" fill="#7B61FF"/>
</g>
<defs>
<clipPath id="clip0_0_50">
<rect width="32" height="32" fill="white" transform="translate(64)"/>
</clipPath>
<clipPath id="clip1_0_50">
<rect width="32" height="32" fill="white" transform="translate(128)"/>
</clipPath>
</defs>
</svg>
